<svg id="afc19ebc-4b34-4d50-8596-a7fe3120afc3" data-name="Layer 1" xmlns="http://www.w3.org/2000/svg" viewBox="0 0 1920 7197">
  <rect width="1920" height="7197" fill="#fff"/>
  <rect x="-524" y="-161" width="2812" height="7509" fill="#b1fadb"/>
  <rect x="-523.5" y="-160.5" width="2811" height="7508" fill="none" stroke="#707070"/>
  <path id="a340601d-b5e8-44fb-bc78-fcfff182b001" data-name="Path 14-2" d="M2200.5-1311.9H1340.69s-215.83,176.19-199.83,985.16c-17.32,1040.86,279.71,1534.68,0,2888.66-93.8,941.5,222.78,1930.72,99,2632.47-231.43,886.15-70,1110.51,0,1802,359.76,3551.34,7.62,5086.71,7.62,5086.71h953Z" fill="#e0ccff"/>
  <path id="a866e73a-8251-4af3-a7a1-5037f921e775" data-name="Path 11-2" d="M-280.5-722H548.85s434.83,457.18,259,1274c-170.76,701.75-186.85,1064.38-71.75,1608.94,164.61,841.6,4,1374.34,0,1584.18-6.76,356.89,52.24,940.86,0,1221.55-115.1,717.84,83.44,1972.06,0,2788.41-347,3394.94-97.41,4328-97.41,4328H-280.5Z" fill="#e0ccff"/>
  <path id="ac4c8dba-c66e-4616-95c7-86748b1d2268" data-name="Path 20-2" d="M3069.45-2574.15H1431.58s-421.93-37.4-41.24,686.84,53.55,807.8-53.26,1677.44C1275.58,307.76,1670.8,460,1444.59,2129.47s239.46,2398.39,0,3392.27c-159.08,566.7-18.74,1770.5,215.18,2354.07,675.18,1684.4-228.19,3010.31-228.19,3010.31H3069.45Z" fill="#ffffc1"/>
  <path id="a9e7a0fe-cbdd-4d1d-9f3b-d6a5139ac676" data-name="Path 17-2" d="M-1159.16-2114h1681s433-37.09,42.32,681.16-55,801.12,54.67,1663.55c63.11,513.35-342.52,664.3-110.35,2320s-245.76,2378.55,0,3364.2c163.27,562,19.24,1755.85-220.84,2334.6-693,1670.46,234.2,2985.4,234.2,2985.4h-1681Z" fill="#ffffc1"/>
  <path id="b1606a7a-a0a9-49a9-aa5a-cef0f9ce3ad8" data-name="Path 18-2" d="M-1424.72-2574.17h1675s431.5-34.41,42.17,631.88S237.7-1199.12,346.93-399.07C409.82,77.15,5.64,217.18,237,1753.1S41,3949.63,237,5078.79c170.82,976,36,1858.35-203.28,2395.23C-656.78,9023.65,250.29,9809.13,250.29,9809.13h-1675Z" fill="#1aecc1"/>
  <path id="f28e320c-1e7c-45fb-acac-9b3355639e09" data-name="Path 19-2" d="M3373.44-2734.86H1677.73s-436.84-37.1-42.7,681.37,55.44,801.36-55.14,1664.06c-63.67,513.51,345.51,664.5,111.31,2320.7s247.91,2379.28,0,3365.23c-164.7,562.18-19.4,1756.39,222.78,2335.31,699,1671-236.25,2986.32-236.25,2986.32H3373.44Z" fill="#1aecc1"/>
</svg>
