<?xml version="1.0" encoding="utf-8"?>
<!-- Generator: Adobe Illustrator 25.4.1, SVG Export Plug-In . SVG Version: 6.00 Build 0)  -->
<svg version="1.1" id="a6e60847-a514-4daf-afec-15c977f0bc6e"
	 xmlns="http://www.w3.org/2000/svg" xmlns:xlink="http://www.w3.org/1999/xlink" x="0px" y="0px" viewBox="0 0 446 505"
	 style="enable-background:new 0 0 446 505;" xml:space="preserve">
<style type="text/css">
	.st0{fill:#FFFFFF;}
</style>
<g>
	<g>
		<path class="st0" d="M311,35c45,0,90,0,135,0c0,168.3,0,336.6,0,505c-148.6,0-297.2,0-446,0C0,371.7,0,203.4,0,35
			c93.6,0,187.3,0,281,0c-8.1,2.4-16,5.6-24.3,7.1c-13.2,2.3-23.8,9.7-35.1,15.8c-8.1,4.4-16,9.6-24.6,12.4
			c-8.9,2.8-16.8,5.7-22.7,13.5c-2.9,3.8-7.7,6.2-11.6,9.2c-9.3,7.1-18.6,14.3-28,21.4c-2.7,2.1-5.6,4.8-8.7,5.4
			c-8.5,1.4-14.9,6-20,12.1c-7.6,9-13.4,19.8-21.6,28.2c-8.4,8.6-12.2,18.8-15.2,29.6c-1.7,6-1.7,12.4-3.1,18.5
			c-2.7,11.9-5.9,23.7-8.7,35.5c-1.6,7-1.7,13.8,0,21c2,8.9,3.5,18,2,27.5c-1.1,6.5-1.4,13.6,0.2,19.9c2.6,9.6,1,18.3-1.8,27.2
			c-3,9.5-9.1,17.2-14.2,25.5C29.4,387.8,15.9,411.5,2.2,435c-2.5,4.3-2.1,11.2,1.1,15.1c3.5,4.2,8.2,4.9,13.2,3.6
			c2.2-0.5,4.5-1.4,6.4-2.6c9.6-6.4,19.1-13,28.7-19.3c3.4-2.2,7.6-3.2,10.7-5.8c3.9-3.3,7.3-7.3,10.4-11.4
			c19.1-25.3,38.4-50.4,56.8-76.1c13.5-18.8,29.6-33.2,51.6-41.6c22.9-8.7,45.1-19,67.5-28.8c13.6-6,26.5-13.4,37.5-23.6
			c8.2-7.6,17.6-13.2,28.1-16.9c10.7-3.8,21.8-6.5,32.1-11.1c22.2-10,44-20.8,65.9-31.4c7.5-3.6,14.7-7.9,22-11.8
			c8.4-4.5,14.4-15,7.4-24.7c-2.5-3.4-4.2-7.5-5.8-11.5c-2.5-6.2-6.7-9.1-13.5-9.8c-9-0.9-11.9-4.3-11.1-13.4
			c0.5-6,3.1-11.7,4.3-17.7c3.1-15.2,2.7-25-14.1-30.5c-10.6-3.4-21-7.5-31.5-11.3c-13.6-4.9-27.2-10-40.9-14.6
			C323.1,37.7,317,36.5,311,35z"/>
		<path d="M311,35c6,1.5,12.1,2.7,17.9,4.7c13.7,4.7,27.3,9.7,40.9,14.6c10.5,3.8,20.9,7.8,31.5,11.3c16.8,5.5,17.2,15.3,14.1,30.5
			c-1.2,5.9-3.8,11.7-4.3,17.7c-0.8,9.2,2.1,12.5,11.1,13.4c6.8,0.7,11,3.6,13.5,9.8c1.6,4,3.3,8,5.8,11.5c7,9.7,1,20.2-7.4,24.7
			c-7.3,3.9-14.5,8.2-22,11.8c-21.9,10.6-43.7,21.4-65.9,31.4c-10.3,4.6-21.4,7.4-32.1,11.1c-10.5,3.7-19.9,9.3-28.1,16.9
			c-11,10.2-23.9,17.6-37.5,23.6c-22.4,9.8-44.7,20.2-67.5,28.8c-22,8.4-38.2,22.7-51.6,41.6c-18.4,25.7-37.7,50.8-56.8,76.1
			c-3.1,4.1-6.5,8.1-10.4,11.4c-3,2.5-7.3,3.6-10.7,5.8c-9.6,6.3-19.1,13-28.7,19.3c-1.9,1.2-4.2,2.1-6.4,2.6
			c-5,1.2-9.7,0.5-13.2-3.6c-3.2-3.8-3.7-10.7-1.1-15.1c13.7-23.5,27.2-47.2,41.4-70.4c5.1-8.3,11.2-16,14.2-25.5
			c2.8-8.9,4.4-17.6,1.8-27.2c-1.7-6.2-1.3-13.4-0.2-19.9c1.6-9.5,0-18.6-2-27.5c-1.6-7.2-1.6-14.1,0-21c2.8-11.9,6-23.6,8.7-35.5
			c1.4-6.1,1.4-12.5,3.1-18.5c3-10.8,6.8-21,15.2-29.6c8.2-8.4,14-19.1,21.6-28.2c5.1-6,11.5-10.7,20-12.1c3.1-0.5,6-3.3,8.7-5.4
			c9.4-7,18.7-14.2,28-21.4c3.9-3,8.7-5.4,11.6-9.2c5.9-7.8,13.8-10.7,22.7-13.5c8.6-2.7,16.5-8,24.6-12.4
			c11.3-6.1,21.9-13.4,35.1-15.8c8.3-1.5,16.2-4.7,24.3-7.1C291,35,301,35,311,35z"/>
	</g>
</g>
</svg>
