<svg id="a5783552-35f3-4c34-8ec0-37914ef20737" data-name="a6e60847-a514-4daf-afec-15c977f0bc6e" xmlns="http://www.w3.org/2000/svg" viewBox="0 0 446 505">
  <g>
    <path d="M311,35H446V540H0V35H281c-8.09,2.42-16,5.64-24.3,7.09-13.15,2.33-23.75,9.68-35.06,15.77-8.1,4.37-16,9.62-24.62,12.36-8.9,2.81-16.81,5.69-22.69,13.52-2.87,3.81-7.66,6.17-11.59,9.18-9.33,7.13-18.62,14.31-28,21.35-2.75,2.06-5.61,4.85-8.74,5.35-8.47,1.38-14.88,6-20,12.09-7.63,9-13.44,19.75-21.64,28.18-8.37,8.59-12.2,18.8-15.21,29.64-1.66,6-1.71,12.43-3.09,18.53-2.68,11.89-5.89,23.66-8.68,35.53a45.92,45.92,0,0,0,0,21c2,8.93,3.53,18,2,27.5-1.08,6.47-1.45,13.64.24,19.85,2.61,9.59,1,18.25-1.8,27.17-3,9.48-9.07,17.16-14.16,25.49-14.2,23.22-27.64,46.9-41.39,70.4C-.36,439.33.05,446.23,3.3,450.07c3.52,4.16,8.19,4.86,13.19,3.63a20.53,20.53,0,0,0,6.36-2.61c9.63-6.37,19.06-13,28.71-19.33,3.38-2.22,7.64-3.24,10.68-5.79a68.42,68.42,0,0,0,10.38-11.43c19.06-25.28,38.38-50.37,56.78-76.12C142.86,319.59,159,305.21,181,296.85c22.87-8.68,45.12-19,67.53-28.85,13.64-6,26.47-13.39,37.5-23.58a80.45,80.45,0,0,1,28.07-16.91c10.68-3.78,21.79-6.52,32.07-11.14,22.18-10,44-20.77,65.86-31.42,7.49-3.64,14.69-7.86,22-11.8,8.4-4.51,14.43-15,7.39-24.74-2.49-3.43-4.17-7.51-5.79-11.47-2.51-6.16-6.71-9.13-13.46-9.8-9-.89-11.89-4.25-11.08-13.4.54-6,3.14-11.72,4.33-17.66,3.06-15.24,2.7-25-14.13-30.49-10.61-3.44-21-7.47-31.54-11.25-13.63-4.9-27.2-10-40.9-14.65C323.08,37.7,317,36.54,311,35Z" fill="#fff"/>
    <path d="M311,35c6,1.54,12.11,2.7,17.95,4.69,13.7,4.68,27.27,9.75,40.9,14.65,10.5,3.78,20.93,7.81,31.54,11.25,16.83,5.47,17.19,15.25,14.13,30.49-1.19,5.94-3.79,11.69-4.33,17.66-.81,9.15,2.08,12.51,11.08,13.4,6.75.67,10.95,3.64,13.46,9.8,1.62,4,3.3,8,5.79,11.47,7,9.74,1,20.23-7.39,24.74-7.34,3.94-14.54,8.16-22,11.8-21.86,10.65-43.68,21.45-65.86,31.42-10.28,4.62-21.39,7.36-32.07,11.14a80.45,80.45,0,0,0-28.07,16.91C275,254.61,262.21,262,248.57,268c-22.41,9.85-44.66,20.17-67.53,28.85-22,8.36-38.18,22.74-51.64,41.57-18.4,25.75-37.72,50.84-56.78,76.12A68.42,68.42,0,0,1,62.24,426c-3,2.55-7.3,3.57-10.68,5.79-9.65,6.32-19.08,13-28.71,19.33a20.53,20.53,0,0,1-6.36,2.61c-5,1.23-9.67.53-13.19-3.63C.05,446.23-.36,439.33,2.16,435c13.75-23.5,27.19-47.18,41.39-70.4,5.09-8.33,11.16-16,14.16-25.49,2.82-8.92,4.41-17.58,1.8-27.17-1.69-6.21-1.32-13.38-.24-19.85,1.57-9.47,0-18.57-2-27.5a45.92,45.92,0,0,1,0-21c2.79-11.87,6-23.64,8.68-35.53,1.38-6.1,1.43-12.53,3.09-18.53,3-10.84,6.84-21.05,15.21-29.64,8.2-8.43,14-19.14,21.64-28.18,5.1-6,11.51-10.71,20-12.09,3.13-.5,6-3.29,8.74-5.35,9.39-7,18.68-14.22,28-21.35,3.93-3,8.72-5.37,11.59-9.18C180.17,75.91,188.08,73,197,70.22c8.64-2.74,16.52-8,24.62-12.36,11.31-6.09,21.91-13.44,35.06-15.77,8.26-1.45,16.21-4.67,24.3-7.09Z"/>
  </g>
</svg>
