<svg id="f883b57f-ca24-4828-8cc9-f187fba11a8d" data-name="Layer 1" xmlns="http://www.w3.org/2000/svg" viewBox="0 0 460.29 625.09">
  <g id="e7ccbea2-7814-4989-9b6c-8be4a1abeb87" data-name="silhuette">
    <path d="M68.94,526.71c-11.39-.23-22.73.64-34.08,1.39-1.27.08-2.77.52-3.66-.64s.15-2.42.73-3.55c2.42-4.7,5.24-8.82,10.59-10.83C50.75,510,51,501.81,53,495.05c1.12-3.78,2.16-7.36,4.62-10.52a43.49,43.49,0,0,0,9.57-27.95c-.08-6.16,2.63-10.51,7.71-13.66,1.79-1.11,3.36-2.63,5.25-3.53,6-2.84,8-7.49,7.09-13.88-2.3-17-4.13-34-6.78-50.94-1.52-9.72-6.23-18.33-12.18-26.19-1.43-1.89-3.43-2.14-5.61-2.31-10.31-.81-17.89,4.79-25.07,10.9a72.85,72.85,0,0,1-23,13.36c-3.88,1.39-8.07,2.28-11.52-.52C.25,367.49-1,357.79.87,354.66c8.86-15.19,17-30.84,28-44.72,2-2.51,2.76-5.53,3.92-8.35,3.56-8.69,10.76-15.18,14.46-23.6,4.65-10.56,9.57-21.2,5.86-33.65-1.51-5.09-1.18-11.11-.27-16.47,1.52-8.94-.18-17.42-2-26s-.13-16.82,1.9-25c4.4-17.7,7.43-35.75,13.55-53a33.66,33.66,0,0,1,7-11.32c6-6.75,10.7-14.63,16.27-21.78,5.82-7.46,12.15-14.39,22.37-15.84a13.79,13.79,0,0,0,7.23-3.84,193.73,193.73,0,0,1,29.36-22.4c5.5-3.43,8.7-9.15,13.93-12.77,1.47-1,2.81-2.23,4.61-2.59,16.13-3.22,29.14-13,43.14-20.67,3.72-2,7.35-4,11.55-4.95,6.47-1.41,12.94-2.78,19.08-5.49,4-1.79,8.56-1.59,12.94-1.92,26.78-2,51.26,5.81,75,17.18,8.62,4.14,18.47,4.94,27,9.52a26,26,0,0,0,5.76,2.57c6.77,1.7,8.3,6.52,8.51,12.69a50.78,50.78,0,0,1-3.28,21,19.34,19.34,0,0,0-1.67,6.56c-.23,7.23,2.34,11.08,9.42,11.64,7.33.57,11.08,4.48,13.14,10.9a2.51,2.51,0,0,0,.16.46c5.52,9.4,7.29,19.41,8,30.41s5.94,21.4,8.67,32.21c2.35,9.25,6.8,17.46,11.31,25.69,2.46,4.49,2,8.86.21,13.54-2.88,7.36-5.8,14.73-5.55,22.95.21,7.36,4.63,11.7,10,15.55.78.55,2,.8,2.42,1.53,6.31,10.13,17.06,17,21,29,1.33,4,5,6.69,8,9.71,3.92,4,7.29,8.49,8.16,14.11,1.51,9.86-4.18,17.77-14.29,20.46-2.82.75-5.67,1.35-8.5,2.05-5.66,1.39-6.59,3-4.86,8.66a55.43,55.43,0,0,0,2.73,7.28,22.24,22.24,0,0,1-.5,20.58c-2.55,5-3.77,9.9-2.22,15.47,1,3.64-1,6.79-3.32,9.25-5.46,5.68-6.85,12.72-7.22,20.09-.43,8.56.81,17.21-2,25.62-1.05,3.14-2.29,6-4.75,8.33-6.14,5.76-12,11.83-20.71,13.88-5.91,1.4-11.63,0-17.35-.92a31.52,31.52,0,0,0-10.57.23,271.31,271.31,0,0,0-49.9,14.08c-6.17,2.36-10.42,7.21-14.05,12.39-4.62,6.62-8.47,13.78-13.06,20.43-2.17,3.15-5.48,5.5-7.92,8.5-11.74,14.42-7,35,9.72,43a21,21,0,0,1,6.83,5.32c2.29,2.61,4.19,5.55,7.35,7.59a12.21,12.21,0,0,1,5.49,8.89c.59,6.75,3.92,12,7.28,17.65,4.78,8.08,10.54,15.53,14.91,23.88,3.3,6.3,7.85,11.91,11,18.36,2.35,4.9,1.44,6.18-4.12,6.5-5.22.3-9.54-.66-13.64-4.57-38.67-36.72-84.64-60.58-135.3-75.94a408.48,408.48,0,0,0-102.6-17.2C81.93,527.07,75.44,526.66,68.94,526.71Z"/>
  </g>
</svg>
