<svg id="ebedd7c7-20a7-4b4c-be1b-1a34fd76f115" data-name="Layer 1" xmlns="http://www.w3.org/2000/svg" viewBox="0 0 563 597">
  <g id="bb82ff10-5617-4e47-a297-b858ebdb81b8" data-name="logo">
    <g id="f0640128-bb3e-4552-83b2-0abcef454935" data-name="ellipse">
      <ellipse cx="281.5" cy="298.5" rx="281.5" ry="298.5" fill="none" stroke="#fff" stroke-miterlimit="10"/>
      <ellipse cx="281.5" cy="298.5" rx="274" ry="291" fill="none" stroke="#fff" stroke-width="13"/>
    </g>
    <path id="b0b46485-f5b9-4745-89cf-cf8fb0cc018b" data-name="silhuette" d="M149.8,460.26c-9-.19-18,.5-27,1.1-1,.06-2.19.41-2.9-.51s.12-1.92.58-2.81c1.92-3.72,4.15-7,8.38-8.57,6.52-2.44,6.72-8.93,8.3-14.28.89-3,1.71-5.82,3.66-8.33a34.37,34.37,0,0,0,7.57-22.12c-.06-4.88,2.09-8.32,6.11-10.81a45,45,0,0,1,4.15-2.8c4.75-2.25,6.34-5.93,5.62-11-1.82-13.45-3.27-26.91-5.37-40.32-1.2-7.7-4.93-14.51-9.64-20.73-1.13-1.5-2.72-1.7-4.44-1.83-8.17-.64-14.17,3.79-19.85,8.63a57.73,57.73,0,0,1-18.21,10.57c-3.07,1.1-6.39,1.81-9.12-.41-2.24-1.84-3.23-9.51-1.75-12,7-12,13.46-24.42,22.17-35.4,1.58-2,2.18-4.38,3.1-6.61,2.82-6.88,8.52-12,11.45-18.69,3.68-8.36,7.58-16.78,4.64-26.63-1.2-4-.94-8.8-.22-13,1.21-7.08-.14-13.79-1.58-20.58s-.1-13.32,1.51-19.79c3.48-14,5.88-28.3,10.72-42a26.66,26.66,0,0,1,5.54-9c4.75-5.34,8.47-11.58,12.88-17.24,4.61-5.91,9.62-11.39,17.71-12.54a10.88,10.88,0,0,0,5.72-3A152.74,152.74,0,0,1,212.8,81.85c4.35-2.72,6.88-7.25,11-10.11a10.41,10.41,0,0,1,3.65-2c12.77-2.55,23.07-10.29,34.15-16.37a36.34,36.34,0,0,1,9.15-3.91c5.12-1.12,10.24-2.2,15.1-4.35,3.17-1.42,6.78-1.26,10.24-1.52,21.2-1.58,40.58,4.6,59.38,13.6,6.82,3.28,14.62,3.91,21.37,7.54a20.47,20.47,0,0,0,4.56,2c5.36,1.35,6.57,5.16,6.74,10.05a40.29,40.29,0,0,1-2.6,16.62,15.34,15.34,0,0,0-1.32,5.19c-.19,5.73,1.85,8.77,7.45,9.22,5.81.45,8.77,3.54,10.41,8.63a2.53,2.53,0,0,0,.12.36c4.37,7.44,5.77,15.37,6.34,24.07s4.7,16.94,6.86,25.5c1.86,7.32,5.38,13.82,8.95,20.34,1.95,3.55,1.59,7,.17,10.72-2.28,5.82-4.59,11.66-4.4,18.16.17,5.83,3.67,9.27,7.92,12.31.62.44,1.58.64,1.92,1.22,5,8,13.5,13.45,16.62,23,1,3.17,4,5.3,6.33,7.69,3.11,3.17,5.77,6.72,6.46,11.17,1.2,7.8-3.31,14.07-11.31,16.19-2.23.6-4.49,1.07-6.73,1.63-4.48,1.1-5.21,2.37-3.85,6.85a44,44,0,0,0,2.17,5.77,17.6,17.6,0,0,1-.4,16.29c-2,4-3,7.83-1.76,12.24.79,2.89-.79,5.38-2.63,7.33-4.32,4.49-5.42,10.07-5.71,15.9-.34,6.78.64,13.62-1.58,20.28a15.35,15.35,0,0,1-3.76,6.6c-4.86,4.55-9.5,9.36-16.4,11-4.68,1.11-9.21,0-13.73-.73a25,25,0,0,0-8.37.19,214.16,214.16,0,0,0-39.5,11.14c-4.89,1.87-8.25,5.71-11.12,9.81-3.66,5.24-6.71,10.91-10.34,16.17-1.72,2.5-4.34,4.36-6.27,6.73a21.91,21.91,0,0,0,7.69,34,16.59,16.59,0,0,1,5.41,4.21c1.81,2.07,3.32,4.4,5.82,6a9.66,9.66,0,0,1,4.34,7c.47,5.34,3.11,9.5,5.77,14,3.78,6.4,8.34,12.29,11.8,18.9,2.61,5,6.21,9.43,8.71,14.54,1.86,3.88,1.14,4.89-3.26,5.14-4.14.24-7.56-.52-10.8-3.61-30.61-29.07-67-48-107.11-60.12a323.05,323.05,0,0,0-81.22-13.61C160.08,460.54,155,460.22,149.8,460.26Z" fill="#fff"/>
  </g>
</svg>
